# Blender 4.3.1
# www.blender.org
mtllib asteroid.mtl
o Icosphere
v 0.000000 -6.113978 0.000000
v 4.424119 -2.734291 3.214273
v -1.689830 -2.734293 6.743845
v -5.468503 -2.734267 0.000000
v -1.689830 -2.734293 -9.577449
v 4.424119 -2.734291 -3.214273
v 1.689830 2.734293 6.743845
v -4.424119 2.734291 3.214273
v -4.424119 2.734291 -7.590872
v 1.689830 2.734293 -9.577449
v 5.468503 2.734267 0.000000
v 0.000000 6.113978 0.000000
v -0.993250 -5.200883 3.056960
v 2.600414 -5.200881 1.889289
v 1.607174 -3.214349 4.946280
v 5.200843 -3.214338 0.000000
v 2.600414 -5.200881 -6.265887
v -3.214300 -5.200866 0.000000
v -4.207575 -3.214340 3.056970
v -0.993250 -5.200883 -7.433559
v -4.207575 -3.214340 -7.433569
v 1.607174 -3.214349 -9.322878
v 5.814747 0.000000 1.889297
v 5.814747 0.000000 -1.889297
v 0.000000 0.000000 7.656972
v 3.593709 0.000000 6.489305
v -5.814747 0.000000 1.889297
v -3.593709 0.000000 4.946311
v -3.593709 0.000000 -9.322909
v -5.814747 0.000000 -6.265895
v 3.593709 0.000000 -9.322909
v 0.000000 0.000000 -10.490577
v 4.207575 3.214340 3.056970
v -1.607174 3.214349 6.489274
v -5.200843 3.214338 -4.376598
v -1.607174 3.214349 -9.322878
v 4.207575 3.214340 -7.433569
v 0.993250 5.200882 3.056960
v 3.214300 5.200866 0.000000
v -2.600414 5.200881 1.889289
v -2.600414 5.200881 -6.265887
v 0.993250 5.200882 -7.433559
vn 0.1024 -0.9435 0.3151
vn 0.7002 -0.6617 0.2680
vn -0.2680 -0.9435 0.1947
vn -0.2724 -0.9587 -0.0814
vn 0.0413 -0.9910 -0.1273
vn 0.9050 -0.3304 0.2680
vn 0.3617 -0.4887 0.7939
vn -0.8897 -0.3304 0.3151
vn -0.5746 -0.3304 -0.7488
vn 0.8027 -0.4961 -0.3312
vn 0.8742 -0.2401 0.4221
vn -0.5989 0.1050 0.7939
vn -0.9921 -0.1256 -0.0000
vn -0.3066 -0.1256 -0.9435
vn 0.9048 -0.3292 -0.2703
vn 0.4758 0.7699 0.4252
vn -0.6057 0.6745 0.4221
vn -0.7002 0.6617 -0.2680
vn 0.0385 0.6617 -0.7488
vn 0.7357 0.6724 -0.0814
vn 0.2724 0.9587 -0.0814
vn 0.5194 0.8403 -0.1552
vn 0.4089 0.6617 -0.6284
vn -0.0413 0.9910 -0.1273
vn -0.1876 0.7947 -0.5773
vn -0.4713 0.6617 -0.5831
vn -0.3313 0.9435 -0.0000
vn -0.6071 0.7947 -0.0000
vn -0.7670 0.6307 0.1184
vn -0.1024 0.9435 0.3151
vn -0.1356 0.8986 0.4173
vn 0.0796 0.8354 0.5438
vn 0.2680 0.9435 0.1947
vn 0.4911 0.7947 0.3568
vn 0.7240 0.6617 0.1947
vn 0.9630 0.2248 -0.1488
vn 0.9580 -0.0147 -0.2862
vn 0.5746 0.3304 -0.7488
vn -0.0247 0.3304 -0.9435
vn -0.3035 0.1876 -0.9342
vn -0.5346 0.3304 -0.7779
vn -0.9050 0.3304 -0.2680
vn -0.9822 0.1876 -0.0000
vn -0.9071 0.4040 0.1184
vn -0.7594 0.1676 0.6286
vn -0.6021 -0.0111 0.7983
vn -0.0247 0.3304 0.9435
vn 0.7116 0.4448 0.5439
vn 0.8644 0.2806 0.4173
vn 0.8897 0.3304 0.3151
vn 0.3066 0.1256 -0.9435
vn 0.3035 -0.1876 -0.9342
vn 0.0247 -0.3304 -0.9435
vn -0.8026 0.1256 -0.5831
vn -0.7947 -0.1876 -0.5773
vn -0.9049 -0.4062 -0.1273
vn -0.8026 0.1256 0.5831
vn -0.7947 -0.1876 0.5773
vn -0.8007 -0.1825 0.5706
vn 0.3066 0.1256 0.9435
vn 0.2594 -0.5435 0.7983
vn 0.4895 -0.6043 0.6286
vn 0.9921 0.1256 -0.0000
vn 0.9822 -0.1876 -0.0000
vn 0.9050 -0.3304 -0.2680
vn 0.9001 -0.1683 -0.4018
vn 0.1876 -0.7947 -0.5773
vn -0.0385 -0.6617 -0.7488
vn -0.4089 -0.6617 -0.6284
vn -0.5194 -0.8403 -0.1552
vn -0.7357 -0.6724 -0.0814
vn -0.7240 -0.6617 0.1947
vn -0.4911 -0.7947 0.3568
vn -0.4758 -0.7699 0.4252
vn 0.9030 -0.3356 -0.2683
vn 0.6071 -0.7947 -0.0000
vn 0.3313 -0.9435 -0.0000
vn 0.1949 -0.7978 0.5706
vn 0.1876 -0.7947 0.5773
vn 0.4713 -0.6617 0.5831
s 0
usemtl Material
f 1//1 14//1 13//1
f 2//2 14//2 16//2
f 1//3 13//3 18//3
f 1//4 18//4 20//4
f 1//5 20//5 17//5
f 2//6 16//6 23//6
f 3//7 15//7 25//7
f 4//8 19//8 27//8
f 5//9 21//9 29//9
f 6//10 22//10 31//10
f 2//11 23//11 26//11
f 3//12 25//12 28//12
f 4//13 27//13 30//13
f 5//14 29//14 32//14
f 6//15 31//15 24//15
f 7//16 33//16 38//16
f 8//17 34//17 40//17
f 9//18 35//18 41//18
f 10//19 36//19 42//19
f 11//20 37//20 39//20
f 39//21 42//21 12//21
f 39//22 37//22 42//22
f 37//23 10//23 42//23
f 42//24 41//24 12//24
f 42//25 36//25 41//25
f 36//26 9//26 41//26
f 41//27 40//27 12//27
f 41//28 35//28 40//28
f 35//29 8//29 40//29
f 40//30 38//30 12//30
f 40//31 34//31 38//31
f 34//32 7//32 38//32
f 38//33 39//33 12//33
f 38//34 33//34 39//34
f 33//35 11//35 39//35
f 24//36 37//36 11//36
f 24//37 31//37 37//37
f 31//38 10//38 37//38
f 32//39 36//39 10//39
f 32//40 29//40 36//40
f 29//41 9//41 36//41
f 30//42 35//42 9//42
f 30//43 27//43 35//43
f 27//44 8//44 35//44
f 28//45 34//45 8//45
f 28//46 25//46 34//46
f 25//47 7//47 34//47
f 26//48 33//48 7//48
f 26//49 23//49 33//49
f 23//50 11//50 33//50
f 31//51 32//51 10//51
f 31//52 22//52 32//52
f 22//53 5//53 32//53
f 29//54 30//54 9//54
f 29//55 21//55 30//55
f 21//56 4//56 30//56
f 27//57 28//57 8//57
f 27//58 19//58 28//58
f 19//59 3//59 28//59
f 25//60 26//60 7//60
f 25//61 15//61 26//61
f 15//62 2//62 26//62
f 23//63 24//63 11//63
f 23//64 16//64 24//64
f 16//65 6//65 24//65
f 17//66 22//66 6//66
f 17//67 20//67 22//67
f 20//68 5//68 22//68
f 20//69 21//69 5//69
f 20//70 18//70 21//70
f 18//71 4//71 21//71
f 18//72 19//72 4//72
f 18//73 13//73 19//73
f 13//74 3//74 19//74
f 16//75 17//75 6//75
f 16//76 14//76 17//76
f 14//77 1//77 17//77
f 13//78 15//78 3//78
f 13//79 14//79 15//79
f 14//80 2//80 15//80
